<svg width="152" height="50" viewBox="0 0 152 50" fill="none" xmlns="http://www.w3.org/2000/svg">
<rect x="2" y="2" width="86" height="45" rx="4" fill="#191923"/>
<path d="M25.9531 18.5938C25.9531 19.8906 25.9219 21.1953 25.8594 22.5078C25.7969 23.8047 25.7188 25.1016 25.625 26.3984C25.6094 26.6328 25.5938 26.9531 25.5781 27.3594C25.5625 27.75 25.5312 28.1797 25.4844 28.6484C25.4375 29.1016 25.375 29.5625 25.2969 30.0312C25.2188 30.5 25.0938 30.9297 24.9219 31.3203C24.7656 31.6953 24.5547 32 24.2891 32.2344C24.0391 32.4844 23.7266 32.6094 23.3516 32.6094C23.0234 32.6094 22.7266 32.5391 22.4609 32.3984C22.2109 32.2578 22 32.0781 21.8281 31.8594C21.6562 31.625 21.5234 31.3672 21.4297 31.0859C21.3359 30.7891 21.2891 30.4844 21.2891 30.1719C21.2891 29.6562 21.3047 29.1406 21.3359 28.625C21.3672 28.0938 21.4141 27.5703 21.4766 27.0547L19.1562 27.2891C19.1094 27.6953 19.0547 28.1875 18.9922 28.7656C18.9453 29.3281 18.8359 29.875 18.6641 30.4062C18.5078 30.9219 18.2656 31.3672 17.9375 31.7422C17.6094 32.1172 17.1562 32.3047 16.5781 32.3047C16.2188 32.3047 15.9219 32.2188 15.6875 32.0469C15.4531 31.8906 15.2656 31.6875 15.125 31.4375C14.9844 31.1719 14.8828 30.8828 14.8203 30.5703C14.7578 30.2578 14.7266 29.9609 14.7266 29.6797C14.7266 28.7422 14.7656 27.8125 14.8438 26.8906C14.9219 25.9531 14.9766 25.0156 15.0078 24.0781C15.0391 23.0938 15.0469 22.1094 15.0312 21.125C15.0312 20.125 15.0469 19.125 15.0781 18.125C15.0938 17.7969 15.1016 17.4141 15.1016 16.9766C15.1172 16.5391 15.1719 16.1328 15.2656 15.7578C15.375 15.3672 15.5469 15.0391 15.7812 14.7734C16.0312 14.5078 16.3984 14.375 16.8828 14.375C17.5547 14.375 18.0625 14.5547 18.4062 14.9141C18.75 15.2578 18.9922 15.6953 19.1328 16.2266C19.2734 16.7422 19.3438 17.2969 19.3438 17.8906C19.3438 18.4688 19.3438 18.9922 19.3438 19.4609C19.3438 20.0859 19.3281 20.7031 19.2969 21.3125C19.2656 21.9062 19.2344 22.5078 19.2031 23.1172L21.7109 22.7422C21.7266 21.9766 21.7422 21.2188 21.7578 20.4688C21.7734 19.7188 21.8047 18.9688 21.8516 18.2188C21.8672 17.8594 21.8828 17.4766 21.8984 17.0703C21.9141 16.6641 21.9766 16.2891 22.0859 15.9453C22.1953 15.6016 22.375 15.3203 22.625 15.1016C22.8906 14.8672 23.2812 14.75 23.7969 14.75C24.2344 14.75 24.5859 14.875 24.8516 15.125C25.1328 15.375 25.3516 15.6797 25.5078 16.0391C25.6797 16.3984 25.7969 16.7812 25.8594 17.1875C25.9219 17.5938 25.9531 17.9609 25.9531 18.2891V18.5938ZM37.7656 25.2969C37.7656 26.1562 37.6797 27.0078 37.5078 27.8516C37.3359 28.6953 37.0469 29.4531 36.6406 30.125C36.2344 30.7812 35.6875 31.3125 35 31.7188C34.3281 32.125 33.4844 32.3281 32.4688 32.3281C31.4688 32.3281 30.6328 32.1328 29.9609 31.7422C29.2891 31.3359 28.75 30.8047 28.3438 30.1484C27.9531 29.4922 27.6719 28.75 27.5 27.9219C27.3438 27.0938 27.2656 26.25 27.2656 25.3906C27.2656 24.4531 27.375 23.5234 27.5938 22.6016C27.6406 22.3516 27.7266 22.0078 27.8516 21.5703C27.9922 21.1172 28.1641 20.6797 28.3672 20.2578C28.5859 19.8203 28.8281 19.4453 29.0938 19.1328C29.375 18.8203 29.6797 18.6641 30.0078 18.6641C30.3203 18.6641 30.5703 18.75 30.7578 18.9219C30.9453 19.0938 31.0938 19.3125 31.2031 19.5781C31.3125 19.8281 31.3828 20.1016 31.4141 20.3984C31.4453 20.6797 31.4609 20.9375 31.4609 21.1719C31.4609 21.5312 31.4297 21.8828 31.3672 22.2266C31.3203 22.5703 31.2656 22.9141 31.2031 23.2578C31.1406 23.7266 31.0781 24.1953 31.0156 24.6641C30.9688 25.1328 30.9453 25.6016 30.9453 26.0703C30.9453 26.3047 30.9531 26.5703 30.9688 26.8672C31 27.1484 31.0625 27.4219 31.1562 27.6875C31.25 27.9531 31.3828 28.1797 31.5547 28.3672C31.7266 28.5391 31.9688 28.625 32.2812 28.625C32.6875 28.625 33.0078 28.5156 33.2422 28.2969C33.4922 28.0781 33.6719 27.8047 33.7812 27.4766C33.9062 27.1484 33.9844 26.7969 34.0156 26.4219C34.0469 26.0469 34.0625 25.7031 34.0625 25.3906C34.0625 24.7031 34.0156 24.0312 33.9219 23.375C33.8281 22.7031 33.7422 22.0234 33.6641 21.3359C33.6484 21.2578 33.6406 21.1484 33.6406 21.0078C33.6406 20.7734 33.6797 20.5391 33.7578 20.3047C33.8359 20.0703 33.9453 19.8594 34.0859 19.6719C34.2266 19.4844 34.3984 19.3359 34.6016 19.2266C34.8047 19.1016 35.0312 19.0391 35.2812 19.0391C35.625 19.0391 35.9297 19.1641 36.1953 19.4141C36.4609 19.6484 36.6797 19.9609 36.8516 20.3516C37.0391 20.7266 37.1875 21.1562 37.2969 21.6406C37.4219 22.1094 37.5156 22.5781 37.5781 23.0469C37.6562 23.5 37.7031 23.9297 37.7188 24.3359C37.75 24.7422 37.7656 25.0625 37.7656 25.2969ZM45.8516 32.6562C45.5859 32.6562 45.375 32.5312 45.2188 32.2812C45.0625 32.0469 44.9453 31.7734 44.8672 31.4609C44.7891 31.1484 44.7344 30.8359 44.7031 30.5234C44.6875 30.1953 44.6797 29.9453 44.6797 29.7734C44.6797 29.3047 44.7031 28.8359 44.75 28.3672C44.8125 27.8984 44.875 27.4297 44.9375 26.9609C45.0156 26.4922 45.0781 26.0234 45.125 25.5547C45.1875 25.0859 45.2188 24.6172 45.2188 24.1484C45.2188 23.9609 45.2109 23.7578 45.1953 23.5391C45.1797 23.3203 45.1406 23.1172 45.0781 22.9297C45.0312 22.7266 44.9453 22.5625 44.8203 22.4375C44.6953 22.3125 44.5312 22.25 44.3281 22.25C44.1875 22.25 44.0312 22.3672 43.8594 22.6016C43.6875 22.8203 43.5234 23.0781 43.3672 23.375C43.2266 23.6562 43.1016 23.9453 42.9922 24.2422C42.8984 24.5234 42.8516 24.7344 42.8516 24.875C42.8516 25.2188 42.8516 25.5703 42.8516 25.9297C42.8672 26.2734 42.875 26.625 42.875 26.9844V28.3438C42.8594 28.625 42.8359 28.9141 42.8047 29.2109C42.7734 29.5078 42.7266 29.7969 42.6641 30.0781C42.6172 30.3594 42.5469 30.6328 42.4531 30.8984C42.3594 31.1484 42.2344 31.375 42.0781 31.5781C41.9375 31.7656 41.7656 31.9219 41.5625 32.0469C41.3594 32.1719 41.1172 32.2344 40.8359 32.2344C40.5234 32.2344 40.2656 32.1328 40.0625 31.9297C39.8594 31.7266 39.6953 31.4688 39.5703 31.1562C39.4453 30.8281 39.3516 30.4688 39.2891 30.0781C39.2422 29.6719 39.2031 29.2812 39.1719 28.9062C39.1562 28.5156 39.1484 28.1641 39.1484 27.8516C39.1641 27.5234 39.1719 27.2656 39.1719 27.0781V25.9766C39.1719 25.3828 39.1562 24.7969 39.125 24.2188C39.1094 23.6406 39.1016 23.0625 39.1016 22.4844C39.1016 22.1719 39.1016 21.7734 39.1016 21.2891C39.1172 20.8047 39.1797 20.3359 39.2891 19.8828C39.3984 19.4141 39.5781 19.0156 39.8281 18.6875C40.0781 18.3594 40.4453 18.1953 40.9297 18.1953C41.1484 18.1953 41.3438 18.2656 41.5156 18.4062C41.6875 18.5469 41.8359 18.7188 41.9609 18.9219C42.1016 19.125 42.2109 19.3438 42.2891 19.5781C42.3828 19.8125 42.4531 20.0156 42.5 20.1875C42.6562 19.9688 42.8359 19.7578 43.0391 19.5547C43.2578 19.3516 43.5 19.1719 43.7656 19.0156C44.0312 18.8594 44.3281 18.7344 44.6562 18.6406C44.9844 18.5469 45.3594 18.5 45.7812 18.5C46.5781 18.5 47.1953 18.6953 47.6328 19.0859C48.0859 19.4609 48.4141 19.9375 48.6172 20.5156C48.8359 21.0781 48.9688 21.6875 49.0156 22.3438C49.0625 23 49.0859 23.5938 49.0859 24.125C49.0859 24.3906 49.0625 24.7891 49.0156 25.3203C48.9688 25.8359 48.8906 26.4141 48.7812 27.0547C48.6875 27.6797 48.5547 28.3281 48.3828 29C48.2109 29.6562 48.0078 30.2578 47.7734 30.8047C47.5391 31.3516 47.2578 31.7969 46.9297 32.1406C46.6172 32.4844 46.2578 32.6562 45.8516 32.6562ZM55.8594 32.8438C54.75 32.8438 53.8828 32.6953 53.2578 32.3984C52.6484 32.1172 52.1875 31.7109 51.875 31.1797C51.5781 30.6484 51.3984 30.0078 51.3359 29.2578C51.2734 28.5078 51.2422 27.6719 51.2422 26.75C51.2422 26.0156 51.2656 25.2812 51.3125 24.5469C51.3594 23.7969 51.4297 23 51.5234 22.1562C51.3047 22.1562 51.1328 22.1641 51.0078 22.1797C50.8828 22.1797 50.7812 22.1797 50.7031 22.1797C50.2031 22.1797 49.7734 22.0703 49.4141 21.8516C49.0391 21.6328 48.8516 21.2969 48.8516 20.8438C48.8516 20.5625 48.9609 20.3125 49.1797 20.0938C49.3828 19.875 49.6484 19.6875 49.9766 19.5312C50.3047 19.375 50.6562 19.25 51.0312 19.1562C51.4219 19.0625 51.7891 19 52.1328 18.9688C52.1328 18.5312 52.1641 18.0469 52.2266 17.5156C52.2891 16.9844 52.3984 16.4922 52.5547 16.0391C52.7266 15.5703 52.9531 15.1797 53.2344 14.8672C53.5156 14.5547 53.875 14.3984 54.3125 14.3984C54.5625 14.3984 54.7812 14.4766 54.9688 14.6328C55.1719 14.7734 55.3359 14.9609 55.4609 15.1953C55.5859 15.4141 55.6797 15.6641 55.7422 15.9453C55.8047 16.2266 55.8359 16.5 55.8359 16.7656C55.8359 17.0781 55.8125 17.3984 55.7656 17.7266C55.7188 18.0547 55.6328 18.4609 55.5078 18.9453C55.7734 18.9141 55.9531 18.8984 56.0469 18.8984C56.1406 18.8828 56.2266 18.875 56.3047 18.875C56.5703 18.875 56.8438 18.8984 57.125 18.9453C57.4219 18.9922 57.6875 19.0703 57.9219 19.1797C58.1719 19.2891 58.375 19.4375 58.5312 19.625C58.6875 19.7969 58.7656 20.0078 58.7656 20.2578C58.7656 20.5391 58.6484 20.7891 58.4141 21.0078C58.1953 21.2266 57.9141 21.4141 57.5703 21.5703C57.2266 21.7266 56.8594 21.8516 56.4688 21.9453C56.0781 22.0234 55.7109 22.0781 55.3672 22.1094C55.2734 22.75 55.2031 23.3438 55.1562 23.8906C55.125 24.4219 55.0859 24.9609 55.0391 25.5078C55.0078 25.7734 54.9766 26.0469 54.9453 26.3281C54.9297 26.5938 54.9219 26.8672 54.9219 27.1484C54.9219 27.3516 54.9297 27.5938 54.9453 27.875C54.9609 28.1406 55.0156 28.3984 55.1094 28.6484C55.2031 28.8984 55.3516 29.1172 55.5547 29.3047C55.7578 29.4766 56.0391 29.5625 56.3984 29.5625C56.6172 29.5625 56.8438 29.5469 57.0781 29.5156C57.3125 29.4688 57.5469 29.4453 57.7812 29.4453C58.1875 29.4453 58.4766 29.5859 58.6484 29.8672C58.8359 30.1484 58.9297 30.5078 58.9297 30.9453C58.9297 31.2734 58.8281 31.5625 58.625 31.8125C58.4375 32.0469 58.1953 32.2344 57.8984 32.375C57.6016 32.5312 57.2656 32.6484 56.8906 32.7266C56.5312 32.8047 56.1875 32.8438 55.8594 32.8438ZM69.2188 27.8281C69.2188 28.3594 69.0469 28.8828 68.7031 29.3984C68.375 29.8984 67.9531 30.3516 67.4375 30.7578C66.9375 31.1484 66.3984 31.4688 65.8203 31.7188C65.2422 31.9531 64.7109 32.0703 64.2266 32.0703C63.3984 32.0703 62.6562 31.8672 62 31.4609C61.3594 31.0391 60.8203 30.5078 60.3828 29.8672C59.9453 29.2266 59.6094 28.5234 59.375 27.7578C59.1562 26.9766 59.0469 26.2188 59.0469 25.4844C59.0469 24.7031 59.1562 23.8672 59.375 22.9766C59.5938 22.0859 59.9219 21.2656 60.3594 20.5156C60.8125 19.7656 61.375 19.1406 62.0469 18.6406C62.7344 18.1406 63.5469 17.8906 64.4844 17.8906C65.0156 17.8906 65.5234 17.9844 66.0078 18.1719C66.4922 18.3438 66.9141 18.5938 67.2734 18.9219C67.6328 19.25 67.9219 19.6406 68.1406 20.0938C68.3594 20.5469 68.4688 21.0547 68.4688 21.6172C68.4688 22.3516 68.3125 23.0391 68 23.6797C67.6875 24.3203 67.2734 24.875 66.7578 25.3438C66.2422 25.8125 65.6484 26.1953 64.9766 26.4922C64.3047 26.7734 63.6172 26.9297 62.9141 26.9609C62.9766 27.4141 63.1562 27.7422 63.4531 27.9453C63.7656 28.1484 64.1328 28.25 64.5547 28.25C64.8672 28.25 65.1719 28.1719 65.4688 28.0156C65.7656 27.8594 66.0547 27.6875 66.3359 27.5C66.6172 27.2969 66.8906 27.1172 67.1562 26.9609C67.4375 26.8047 67.7188 26.7266 68 26.7266C68.3125 26.7266 68.5938 26.8281 68.8438 27.0312C69.0938 27.2344 69.2188 27.5 69.2188 27.8281ZM65.4219 22.0859C65.4219 21.8828 65.3672 21.6719 65.2578 21.4531C65.1484 21.2344 64.9766 21.125 64.7422 21.125C64.3984 21.125 64.1094 21.2188 63.875 21.4062C63.6406 21.5781 63.4453 21.8047 63.2891 22.0859C63.1328 22.3516 63.0078 22.6406 62.9141 22.9531C62.8359 23.2656 62.7891 23.5547 62.7734 23.8203C62.9922 23.7734 63.25 23.7109 63.5469 23.6328C63.8594 23.5547 64.1484 23.4531 64.4141 23.3281C64.6953 23.1875 64.9297 23.0156 65.1172 22.8125C65.3203 22.6094 65.4219 22.3672 65.4219 22.0859ZM78.2891 23.2344C78.0703 23.25 77.8828 23.2344 77.7266 23.1875C77.5703 23.125 77.4141 23.0625 77.2578 23C77.1172 22.9375 76.9766 22.8828 76.8359 22.8359C76.6953 22.7734 76.5391 22.75 76.3672 22.7656C76.0547 22.7812 75.7734 22.8672 75.5234 23.0234C75.2891 23.1797 75.0703 23.375 74.8672 23.6094C74.6797 23.8438 74.5156 24.1094 74.375 24.4062C74.2344 24.6875 74.125 24.9688 74.0469 25.25C74 25.4375 73.9609 25.7266 73.9297 26.1172C73.9141 26.4922 73.9062 26.8984 73.9062 27.3359C73.8906 27.7891 73.8828 28.2188 73.8828 28.625C73.8828 29.0312 73.8672 29.3516 73.8359 29.5859C73.8203 29.8359 73.7812 30.1328 73.7188 30.4766C73.6562 30.8047 73.5547 31.1172 73.4141 31.4141C73.2891 31.7109 73.1172 31.9609 72.8984 32.1641C72.6797 32.3672 72.3984 32.4688 72.0547 32.4688C71.7891 32.4688 71.5547 32.3906 71.3516 32.2344C71.1641 32.0781 71 31.875 70.8594 31.625C70.7344 31.3594 70.625 31.0547 70.5312 30.7109C70.4531 30.3672 70.3906 30.0156 70.3438 29.6562C70.2969 29.2812 70.2578 28.9062 70.2266 28.5312C70.2109 28.1562 70.1953 27.8047 70.1797 27.4766C70.1797 27.1328 70.1797 26.8203 70.1797 26.5391C70.1953 26.2578 70.2031 26.0312 70.2031 25.8594C70.1875 25.3125 70.1562 24.7656 70.1094 24.2188C70.0781 23.6562 70.0625 23.1016 70.0625 22.5547C70.0625 22.2109 70.0781 21.8281 70.1094 21.4062C70.1406 20.9844 70.2266 20.5938 70.3672 20.2344C70.5078 19.8594 70.7109 19.5469 70.9766 19.2969C71.2578 19.0469 71.6406 18.9219 72.125 18.9219C72.3906 18.9219 72.6172 19.0078 72.8047 19.1797C72.9922 19.3516 73.1406 19.5625 73.25 19.8125C73.375 20.0625 73.4688 20.3281 73.5312 20.6094C73.5938 20.8906 73.6328 21.1484 73.6484 21.3828C74.0234 20.7734 74.4453 20.2812 74.9141 19.9062C75.3828 19.5156 75.9922 19.3047 76.7422 19.2734C77.1172 19.2578 77.4844 19.2969 77.8438 19.3906C78.2188 19.4688 78.5547 19.6094 78.8516 19.8125C79.1641 20 79.4141 20.25 79.6016 20.5625C79.8047 20.875 79.9141 21.2422 79.9297 21.6641C79.9609 22.1641 79.8125 22.5469 79.4844 22.8125C79.1562 23.0781 78.7578 23.2188 78.2891 23.2344Z" fill="white"/>
<path d="M106.219 14.6875V29.4688C106.219 30.1146 106.172 30.7083 106.078 31.25C105.984 31.7812 105.771 32.2083 105.438 32.5312C105.115 32.8438 104.594 33 103.875 33C103.198 33 102.688 32.8698 102.344 32.6094C102 32.3385 101.766 32.0052 101.641 31.6094C101.526 31.2031 101.469 30.7917 101.469 30.375C101.26 31.0625 100.885 31.6719 100.344 32.2031C99.8021 32.7344 99.0521 33 98.0938 33C97.5208 33 96.9479 32.9062 96.375 32.7188C95.8021 32.5312 95.2865 32.2188 94.8281 31.7812C94.3698 31.3438 93.9948 30.776 93.7031 30.0781C93.4219 29.3698 93.2812 28.5 93.2812 27.4688V22.9375C93.2812 21.8958 93.4219 21.026 93.7031 20.3281C93.9948 19.6198 94.3698 19.0469 94.8281 18.6094C95.2865 18.1823 95.8021 17.875 96.375 17.6875C96.9479 17.5 97.5208 17.4062 98.0938 17.4062C99.0521 17.4062 99.8021 17.6667 100.344 18.1875C100.885 18.7083 101.26 19.3229 101.469 20.0312V14.6875C101.469 14.0312 101.521 13.4375 101.625 12.9062C101.74 12.3646 101.969 11.9323 102.312 11.6094C102.656 11.2865 103.177 11.125 103.875 11.125C104.552 11.125 105.057 11.2865 105.391 11.6094C105.724 11.9323 105.943 12.3646 106.047 12.9062C106.161 13.4479 106.219 14.0417 106.219 14.6875ZM98.0938 23.2812V27.0625C98.0938 27.6667 98.1667 28.1979 98.3125 28.6562C98.4583 29.1146 98.8438 29.3438 99.4688 29.3438C100.24 29.3438 100.771 28.9688 101.062 28.2188C101.208 27.8438 101.307 27.3698 101.359 26.7969C101.422 26.2135 101.458 25.5208 101.469 24.7188C101.469 24.2292 101.411 23.7031 101.297 23.1406C101.182 22.5677 100.979 22.0781 100.688 21.6719C100.396 21.2656 99.9896 21.0625 99.4688 21.0625C98.8438 21.0625 98.4583 21.2865 98.3125 21.7344C98.1667 22.1823 98.0938 22.6979 98.0938 23.2812ZM109.156 27.125V23.25C109.156 22.2812 109.286 21.4688 109.547 20.8125C109.807 20.1458 110.141 19.5885 110.547 19.1406C110.964 18.6927 111.427 18.3438 111.938 18.0938C112.427 17.8438 112.922 17.6562 113.422 17.5312C113.911 17.4062 114.365 17.3281 114.781 17.2969C115.208 17.2656 115.542 17.25 115.781 17.25C116.021 17.25 116.349 17.2656 116.766 17.2969C117.182 17.3281 117.63 17.4062 118.109 17.5312C118.589 17.6562 119.068 17.8438 119.547 18.0938C120.036 18.3438 120.474 18.6927 120.859 19.1406C121.255 19.5885 121.573 20.1458 121.812 20.8125C122.062 21.4792 122.188 22.2917 122.188 23.25V27.125C122.188 28.0729 122.062 28.8854 121.812 29.5625C121.562 30.2292 121.245 30.7865 120.859 31.2344C120.474 31.6823 120.036 32.0312 119.547 32.2812C119.068 32.5312 118.589 32.7188 118.109 32.8438C117.63 32.9688 117.182 33.0469 116.766 33.0781C116.349 33.1094 116.021 33.125 115.781 33.125C115.552 33.125 115.224 33.1094 114.797 33.0781C114.38 33.0469 113.922 32.9688 113.422 32.8438C112.932 32.7188 112.438 32.5312 111.938 32.2812C111.427 32.0312 110.969 31.6823 110.562 31.2344C110.146 30.7865 109.807 30.2292 109.547 29.5625C109.286 28.8958 109.156 28.0833 109.156 27.125ZM113.969 22.5625V28.2188C113.99 28.5312 114.062 28.7969 114.188 29.0156C114.302 29.224 114.479 29.4115 114.719 29.5781C114.969 29.7344 115.323 29.8125 115.781 29.8125C116.219 29.8125 116.552 29.7344 116.781 29.5781C117.021 29.4115 117.198 29.224 117.312 29.0156C117.448 28.7656 117.521 28.5 117.531 28.2188V22.5625C117.521 22.2708 117.448 21.9844 117.312 21.7031C117.198 21.4948 117.021 21.3021 116.781 21.125C116.552 20.9375 116.219 20.8438 115.781 20.8438C115.323 20.8438 114.969 20.9375 114.719 21.125C114.479 21.3021 114.302 21.4948 114.188 21.7031C114.062 21.9427 113.99 22.2292 113.969 22.5625ZM134.781 17.375C135.177 17.375 135.573 17.5104 135.969 17.7812C136.552 18.1771 136.844 18.6562 136.844 19.2188C136.844 19.5625 136.76 19.9219 136.594 20.2969C136.427 20.6719 136.219 21.0312 135.969 21.375L133.188 25.1875L135.969 28.9688C136.208 29.3333 136.411 29.6979 136.578 30.0625C136.755 30.4271 136.844 30.7812 136.844 31.125C136.844 31.7083 136.552 32.1979 135.969 32.5938C135.542 32.8646 135.156 33 134.812 33C134.365 33 133.974 32.8229 133.641 32.4688C133.307 32.1146 132.979 31.7188 132.656 31.2812L130.781 28.6562L128.844 31.2812C128.573 31.7292 128.26 32.1302 127.906 32.4844C127.562 32.8281 127.177 33 126.75 33C126.406 33 126.021 32.8646 125.594 32.5938C125.01 32.1875 124.719 31.6979 124.719 31.125C124.719 30.7812 124.802 30.4271 124.969 30.0625C125.146 29.6979 125.354 29.3333 125.594 28.9688L128.219 25.1875L125.594 21.375C125.354 21.0104 125.146 20.651 124.969 20.2969C124.802 19.9427 124.719 19.5938 124.719 19.25C124.719 18.6771 125.01 18.1875 125.594 17.7812C126.021 17.5104 126.406 17.375 126.75 17.375C127.177 17.375 127.562 17.5469 127.906 17.8906C128.25 18.2344 128.562 18.625 128.844 19.0625L130.781 21.6875L132.656 19.0625C132.958 18.625 133.276 18.2344 133.609 17.8906C133.943 17.5469 134.333 17.375 134.781 17.375Z" fill="white"/>
</svg>
