<svg width="152" height="48" viewBox="0 0 152 48" fill="none" xmlns="http://www.w3.org/2000/svg">
<rect x="2" y="1.92" width="86" height="43.2" rx="4" fill="#2E5266"/>
<path d="M25.9531 18.2737C25.9531 19.5706 25.9219 20.8753 25.8594 22.1878C25.7969 23.4847 25.7188 24.7816 25.625 26.0784C25.6094 26.3128 25.5938 26.6331 25.5781 27.0394C25.5625 27.43 25.5312 27.8597 25.4844 28.3284C25.4375 28.7816 25.375 29.2425 25.2969 29.7112C25.2188 30.18 25.0938 30.6097 24.9219 31.0003C24.7656 31.3753 24.5547 31.68 24.2891 31.9144C24.0391 32.1644 23.7266 32.2894 23.3516 32.2894C23.0234 32.2894 22.7266 32.2191 22.4609 32.0784C22.2109 31.9378 22 31.7581 21.8281 31.5394C21.6562 31.305 21.5234 31.0472 21.4297 30.7659C21.3359 30.4691 21.2891 30.1644 21.2891 29.8519C21.2891 29.3362 21.3047 28.8206 21.3359 28.305C21.3672 27.7737 21.4141 27.2503 21.4766 26.7347L19.1562 26.9691C19.1094 27.3753 19.0547 27.8675 18.9922 28.4456C18.9453 29.0081 18.8359 29.555 18.6641 30.0862C18.5078 30.6019 18.2656 31.0472 17.9375 31.4222C17.6094 31.7972 17.1562 31.9847 16.5781 31.9847C16.2188 31.9847 15.9219 31.8987 15.6875 31.7269C15.4531 31.5706 15.2656 31.3675 15.125 31.1175C14.9844 30.8519 14.8828 30.5628 14.8203 30.2503C14.7578 29.9378 14.7266 29.6409 14.7266 29.3597C14.7266 28.4222 14.7656 27.4925 14.8438 26.5706C14.9219 25.6331 14.9766 24.6956 15.0078 23.7581C15.0391 22.7737 15.0469 21.7894 15.0312 20.805C15.0312 19.805 15.0469 18.805 15.0781 17.805C15.0938 17.4769 15.1016 17.0941 15.1016 16.6566C15.1172 16.2191 15.1719 15.8128 15.2656 15.4378C15.375 15.0472 15.5469 14.7191 15.7812 14.4534C16.0312 14.1878 16.3984 14.055 16.8828 14.055C17.5547 14.055 18.0625 14.2347 18.4062 14.5941C18.75 14.9378 18.9922 15.3753 19.1328 15.9066C19.2734 16.4222 19.3438 16.9769 19.3438 17.5706C19.3438 18.1487 19.3438 18.6722 19.3438 19.1409C19.3438 19.7659 19.3281 20.3831 19.2969 20.9925C19.2656 21.5862 19.2344 22.1878 19.2031 22.7972L21.7109 22.4222C21.7266 21.6566 21.7422 20.8987 21.7578 20.1487C21.7734 19.3987 21.8047 18.6487 21.8516 17.8987C21.8672 17.5394 21.8828 17.1566 21.8984 16.7503C21.9141 16.3441 21.9766 15.9691 22.0859 15.6253C22.1953 15.2816 22.375 15.0003 22.625 14.7816C22.8906 14.5472 23.2812 14.43 23.7969 14.43C24.2344 14.43 24.5859 14.555 24.8516 14.805C25.1328 15.055 25.3516 15.3597 25.5078 15.7191C25.6797 16.0784 25.7969 16.4612 25.8594 16.8675C25.9219 17.2737 25.9531 17.6409 25.9531 17.9691V18.2737ZM37.7656 24.9769C37.7656 25.8362 37.6797 26.6878 37.5078 27.5316C37.3359 28.3753 37.0469 29.1331 36.6406 29.805C36.2344 30.4612 35.6875 30.9925 35 31.3987C34.3281 31.805 33.4844 32.0081 32.4688 32.0081C31.4688 32.0081 30.6328 31.8128 29.9609 31.4222C29.2891 31.0159 28.75 30.4847 28.3438 29.8284C27.9531 29.1722 27.6719 28.43 27.5 27.6019C27.3438 26.7737 27.2656 25.93 27.2656 25.0706C27.2656 24.1331 27.375 23.2034 27.5938 22.2816C27.6406 22.0316 27.7266 21.6878 27.8516 21.2503C27.9922 20.7972 28.1641 20.3597 28.3672 19.9378C28.5859 19.5003 28.8281 19.1253 29.0938 18.8128C29.375 18.5003 29.6797 18.3441 30.0078 18.3441C30.3203 18.3441 30.5703 18.43 30.7578 18.6019C30.9453 18.7737 31.0938 18.9925 31.2031 19.2581C31.3125 19.5081 31.3828 19.7816 31.4141 20.0784C31.4453 20.3597 31.4609 20.6175 31.4609 20.8519C31.4609 21.2112 31.4297 21.5628 31.3672 21.9066C31.3203 22.2503 31.2656 22.5941 31.2031 22.9378C31.1406 23.4066 31.0781 23.8753 31.0156 24.3441C30.9688 24.8128 30.9453 25.2816 30.9453 25.7503C30.9453 25.9847 30.9531 26.2503 30.9688 26.5472C31 26.8284 31.0625 27.1019 31.1562 27.3675C31.25 27.6331 31.3828 27.8597 31.5547 28.0472C31.7266 28.2191 31.9688 28.305 32.2812 28.305C32.6875 28.305 33.0078 28.1956 33.2422 27.9769C33.4922 27.7581 33.6719 27.4847 33.7812 27.1566C33.9062 26.8284 33.9844 26.4769 34.0156 26.1019C34.0469 25.7269 34.0625 25.3831 34.0625 25.0706C34.0625 24.3831 34.0156 23.7112 33.9219 23.055C33.8281 22.3831 33.7422 21.7034 33.6641 21.0159C33.6484 20.9378 33.6406 20.8284 33.6406 20.6878C33.6406 20.4534 33.6797 20.2191 33.7578 19.9847C33.8359 19.7503 33.9453 19.5394 34.0859 19.3519C34.2266 19.1644 34.3984 19.0159 34.6016 18.9066C34.8047 18.7816 35.0312 18.7191 35.2812 18.7191C35.625 18.7191 35.9297 18.8441 36.1953 19.0941C36.4609 19.3284 36.6797 19.6409 36.8516 20.0316C37.0391 20.4066 37.1875 20.8362 37.2969 21.3206C37.4219 21.7894 37.5156 22.2581 37.5781 22.7269C37.6562 23.18 37.7031 23.6097 37.7188 24.0159C37.75 24.4222 37.7656 24.7425 37.7656 24.9769ZM45.8516 32.3362C45.5859 32.3362 45.375 32.2112 45.2188 31.9612C45.0625 31.7269 44.9453 31.4534 44.8672 31.1409C44.7891 30.8284 44.7344 30.5159 44.7031 30.2034C44.6875 29.8753 44.6797 29.6253 44.6797 29.4534C44.6797 28.9847 44.7031 28.5159 44.75 28.0472C44.8125 27.5784 44.875 27.1097 44.9375 26.6409C45.0156 26.1722 45.0781 25.7034 45.125 25.2347C45.1875 24.7659 45.2188 24.2972 45.2188 23.8284C45.2188 23.6409 45.2109 23.4378 45.1953 23.2191C45.1797 23.0003 45.1406 22.7972 45.0781 22.6097C45.0312 22.4066 44.9453 22.2425 44.8203 22.1175C44.6953 21.9925 44.5312 21.93 44.3281 21.93C44.1875 21.93 44.0312 22.0472 43.8594 22.2816C43.6875 22.5003 43.5234 22.7581 43.3672 23.055C43.2266 23.3362 43.1016 23.6253 42.9922 23.9222C42.8984 24.2034 42.8516 24.4144 42.8516 24.555C42.8516 24.8987 42.8516 25.2503 42.8516 25.6097C42.8672 25.9534 42.875 26.305 42.875 26.6644V28.0237C42.8594 28.305 42.8359 28.5941 42.8047 28.8909C42.7734 29.1878 42.7266 29.4769 42.6641 29.7581C42.6172 30.0394 42.5469 30.3128 42.4531 30.5784C42.3594 30.8284 42.2344 31.055 42.0781 31.2581C41.9375 31.4456 41.7656 31.6019 41.5625 31.7269C41.3594 31.8519 41.1172 31.9144 40.8359 31.9144C40.5234 31.9144 40.2656 31.8128 40.0625 31.6097C39.8594 31.4066 39.6953 31.1487 39.5703 30.8362C39.4453 30.5081 39.3516 30.1487 39.2891 29.7581C39.2422 29.3519 39.2031 28.9612 39.1719 28.5862C39.1562 28.1956 39.1484 27.8441 39.1484 27.5316C39.1641 27.2034 39.1719 26.9456 39.1719 26.7581V25.6566C39.1719 25.0628 39.1562 24.4769 39.125 23.8987C39.1094 23.3206 39.1016 22.7425 39.1016 22.1644C39.1016 21.8519 39.1016 21.4534 39.1016 20.9691C39.1172 20.4847 39.1797 20.0159 39.2891 19.5628C39.3984 19.0941 39.5781 18.6956 39.8281 18.3675C40.0781 18.0394 40.4453 17.8753 40.9297 17.8753C41.1484 17.8753 41.3438 17.9456 41.5156 18.0862C41.6875 18.2269 41.8359 18.3987 41.9609 18.6019C42.1016 18.805 42.2109 19.0237 42.2891 19.2581C42.3828 19.4925 42.4531 19.6956 42.5 19.8675C42.6562 19.6487 42.8359 19.4378 43.0391 19.2347C43.2578 19.0316 43.5 18.8519 43.7656 18.6956C44.0312 18.5394 44.3281 18.4144 44.6562 18.3206C44.9844 18.2269 45.3594 18.18 45.7812 18.18C46.5781 18.18 47.1953 18.3753 47.6328 18.7659C48.0859 19.1409 48.4141 19.6175 48.6172 20.1956C48.8359 20.7581 48.9688 21.3675 49.0156 22.0237C49.0625 22.68 49.0859 23.2737 49.0859 23.805C49.0859 24.0706 49.0625 24.4691 49.0156 25.0003C48.9688 25.5159 48.8906 26.0941 48.7812 26.7347C48.6875 27.3597 48.5547 28.0081 48.3828 28.68C48.2109 29.3362 48.0078 29.9378 47.7734 30.4847C47.5391 31.0316 47.2578 31.4769 46.9297 31.8206C46.6172 32.1644 46.2578 32.3362 45.8516 32.3362ZM55.8594 32.5237C54.75 32.5237 53.8828 32.3753 53.2578 32.0784C52.6484 31.7972 52.1875 31.3909 51.875 30.8597C51.5781 30.3284 51.3984 29.6878 51.3359 28.9378C51.2734 28.1878 51.2422 27.3519 51.2422 26.43C51.2422 25.6956 51.2656 24.9612 51.3125 24.2269C51.3594 23.4769 51.4297 22.68 51.5234 21.8362C51.3047 21.8362 51.1328 21.8441 51.0078 21.8597C50.8828 21.8597 50.7812 21.8597 50.7031 21.8597C50.2031 21.8597 49.7734 21.7503 49.4141 21.5316C49.0391 21.3128 48.8516 20.9769 48.8516 20.5237C48.8516 20.2425 48.9609 19.9925 49.1797 19.7737C49.3828 19.555 49.6484 19.3675 49.9766 19.2112C50.3047 19.055 50.6562 18.93 51.0312 18.8362C51.4219 18.7425 51.7891 18.68 52.1328 18.6487C52.1328 18.2112 52.1641 17.7269 52.2266 17.1956C52.2891 16.6644 52.3984 16.1722 52.5547 15.7191C52.7266 15.2503 52.9531 14.8597 53.2344 14.5472C53.5156 14.2347 53.875 14.0784 54.3125 14.0784C54.5625 14.0784 54.7812 14.1566 54.9688 14.3128C55.1719 14.4534 55.3359 14.6409 55.4609 14.8753C55.5859 15.0941 55.6797 15.3441 55.7422 15.6253C55.8047 15.9066 55.8359 16.18 55.8359 16.4456C55.8359 16.7581 55.8125 17.0784 55.7656 17.4066C55.7188 17.7347 55.6328 18.1409 55.5078 18.6253C55.7734 18.5941 55.9531 18.5784 56.0469 18.5784C56.1406 18.5628 56.2266 18.555 56.3047 18.555C56.5703 18.555 56.8438 18.5784 57.125 18.6253C57.4219 18.6722 57.6875 18.7503 57.9219 18.8597C58.1719 18.9691 58.375 19.1175 58.5312 19.305C58.6875 19.4769 58.7656 19.6878 58.7656 19.9378C58.7656 20.2191 58.6484 20.4691 58.4141 20.6878C58.1953 20.9066 57.9141 21.0941 57.5703 21.2503C57.2266 21.4066 56.8594 21.5316 56.4688 21.6253C56.0781 21.7034 55.7109 21.7581 55.3672 21.7894C55.2734 22.43 55.2031 23.0237 55.1562 23.5706C55.125 24.1019 55.0859 24.6409 55.0391 25.1878C55.0078 25.4534 54.9766 25.7269 54.9453 26.0081C54.9297 26.2737 54.9219 26.5472 54.9219 26.8284C54.9219 27.0316 54.9297 27.2737 54.9453 27.555C54.9609 27.8206 55.0156 28.0784 55.1094 28.3284C55.2031 28.5784 55.3516 28.7972 55.5547 28.9847C55.7578 29.1566 56.0391 29.2425 56.3984 29.2425C56.6172 29.2425 56.8438 29.2269 57.0781 29.1956C57.3125 29.1487 57.5469 29.1253 57.7812 29.1253C58.1875 29.1253 58.4766 29.2659 58.6484 29.5472C58.8359 29.8284 58.9297 30.1878 58.9297 30.6253C58.9297 30.9534 58.8281 31.2425 58.625 31.4925C58.4375 31.7269 58.1953 31.9144 57.8984 32.055C57.6016 32.2112 57.2656 32.3284 56.8906 32.4066C56.5312 32.4847 56.1875 32.5237 55.8594 32.5237ZM69.2188 27.5081C69.2188 28.0394 69.0469 28.5628 68.7031 29.0784C68.375 29.5784 67.9531 30.0316 67.4375 30.4378C66.9375 30.8284 66.3984 31.1487 65.8203 31.3987C65.2422 31.6331 64.7109 31.7503 64.2266 31.7503C63.3984 31.7503 62.6562 31.5472 62 31.1409C61.3594 30.7191 60.8203 30.1878 60.3828 29.5472C59.9453 28.9066 59.6094 28.2034 59.375 27.4378C59.1562 26.6566 59.0469 25.8987 59.0469 25.1644C59.0469 24.3831 59.1562 23.5472 59.375 22.6566C59.5938 21.7659 59.9219 20.9456 60.3594 20.1956C60.8125 19.4456 61.375 18.8206 62.0469 18.3206C62.7344 17.8206 63.5469 17.5706 64.4844 17.5706C65.0156 17.5706 65.5234 17.6644 66.0078 17.8519C66.4922 18.0237 66.9141 18.2737 67.2734 18.6019C67.6328 18.93 67.9219 19.3206 68.1406 19.7737C68.3594 20.2269 68.4688 20.7347 68.4688 21.2972C68.4688 22.0316 68.3125 22.7191 68 23.3597C67.6875 24.0003 67.2734 24.555 66.7578 25.0237C66.2422 25.4925 65.6484 25.8753 64.9766 26.1722C64.3047 26.4534 63.6172 26.6097 62.9141 26.6409C62.9766 27.0941 63.1562 27.4222 63.4531 27.6253C63.7656 27.8284 64.1328 27.93 64.5547 27.93C64.8672 27.93 65.1719 27.8519 65.4688 27.6956C65.7656 27.5394 66.0547 27.3675 66.3359 27.18C66.6172 26.9769 66.8906 26.7972 67.1562 26.6409C67.4375 26.4847 67.7188 26.4066 68 26.4066C68.3125 26.4066 68.5938 26.5081 68.8438 26.7112C69.0938 26.9144 69.2188 27.18 69.2188 27.5081ZM65.4219 21.7659C65.4219 21.5628 65.3672 21.3519 65.2578 21.1331C65.1484 20.9144 64.9766 20.805 64.7422 20.805C64.3984 20.805 64.1094 20.8987 63.875 21.0862C63.6406 21.2581 63.4453 21.4847 63.2891 21.7659C63.1328 22.0316 63.0078 22.3206 62.9141 22.6331C62.8359 22.9456 62.7891 23.2347 62.7734 23.5003C62.9922 23.4534 63.25 23.3909 63.5469 23.3128C63.8594 23.2347 64.1484 23.1331 64.4141 23.0081C64.6953 22.8675 64.9297 22.6956 65.1172 22.4925C65.3203 22.2894 65.4219 22.0472 65.4219 21.7659ZM78.2891 22.9144C78.0703 22.93 77.8828 22.9144 77.7266 22.8675C77.5703 22.805 77.4141 22.7425 77.2578 22.68C77.1172 22.6175 76.9766 22.5628 76.8359 22.5159C76.6953 22.4534 76.5391 22.43 76.3672 22.4456C76.0547 22.4612 75.7734 22.5472 75.5234 22.7034C75.2891 22.8597 75.0703 23.055 74.8672 23.2894C74.6797 23.5237 74.5156 23.7894 74.375 24.0862C74.2344 24.3675 74.125 24.6487 74.0469 24.93C74 25.1175 73.9609 25.4066 73.9297 25.7972C73.9141 26.1722 73.9062 26.5784 73.9062 27.0159C73.8906 27.4691 73.8828 27.8987 73.8828 28.305C73.8828 28.7112 73.8672 29.0316 73.8359 29.2659C73.8203 29.5159 73.7812 29.8128 73.7188 30.1566C73.6562 30.4847 73.5547 30.7972 73.4141 31.0941C73.2891 31.3909 73.1172 31.6409 72.8984 31.8441C72.6797 32.0472 72.3984 32.1487 72.0547 32.1487C71.7891 32.1487 71.5547 32.0706 71.3516 31.9144C71.1641 31.7581 71 31.555 70.8594 31.305C70.7344 31.0394 70.625 30.7347 70.5312 30.3909C70.4531 30.0472 70.3906 29.6956 70.3438 29.3362C70.2969 28.9612 70.2578 28.5862 70.2266 28.2112C70.2109 27.8362 70.1953 27.4847 70.1797 27.1566C70.1797 26.8128 70.1797 26.5003 70.1797 26.2191C70.1953 25.9378 70.2031 25.7112 70.2031 25.5394C70.1875 24.9925 70.1562 24.4456 70.1094 23.8987C70.0781 23.3362 70.0625 22.7816 70.0625 22.2347C70.0625 21.8909 70.0781 21.5081 70.1094 21.0862C70.1406 20.6644 70.2266 20.2737 70.3672 19.9144C70.5078 19.5394 70.7109 19.2269 70.9766 18.9769C71.2578 18.7269 71.6406 18.6019 72.125 18.6019C72.3906 18.6019 72.6172 18.6878 72.8047 18.8597C72.9922 19.0316 73.1406 19.2425 73.25 19.4925C73.375 19.7425 73.4688 20.0081 73.5312 20.2894C73.5938 20.5706 73.6328 20.8284 73.6484 21.0628C74.0234 20.4534 74.4453 19.9612 74.9141 19.5862C75.3828 19.1956 75.9922 18.9847 76.7422 18.9534C77.1172 18.9378 77.4844 18.9769 77.8438 19.0706C78.2188 19.1487 78.5547 19.2894 78.8516 19.4925C79.1641 19.68 79.4141 19.93 79.6016 20.2425C79.8047 20.555 79.9141 20.9222 79.9297 21.3441C79.9609 21.8441 79.8125 22.2269 79.4844 22.4925C79.1562 22.7581 78.7578 22.8987 78.2891 22.9144Z" fill="#191923"/>
<path d="M106.219 14.9275V29.7088C106.219 30.3546 106.172 30.9483 106.078 31.49C105.984 32.0213 105.771 32.4483 105.438 32.7713C105.115 33.0838 104.594 33.24 103.875 33.24C103.198 33.24 102.688 33.1098 102.344 32.8494C102 32.5785 101.766 32.2452 101.641 31.8494C101.526 31.4431 101.469 31.0317 101.469 30.615C101.26 31.3025 100.885 31.9119 100.344 32.4431C99.8021 32.9744 99.0521 33.24 98.0938 33.24C97.5208 33.24 96.9479 33.1463 96.375 32.9588C95.8021 32.7713 95.2865 32.4588 94.8281 32.0213C94.3698 31.5838 93.9948 31.016 93.7031 30.3181C93.4219 29.6098 93.2812 28.74 93.2812 27.7088V23.1775C93.2812 22.1358 93.4219 21.266 93.7031 20.5681C93.9948 19.8598 94.3698 19.2869 94.8281 18.8494C95.2865 18.4223 95.8021 18.115 96.375 17.9275C96.9479 17.74 97.5208 17.6463 98.0938 17.6463C99.0521 17.6463 99.8021 17.9067 100.344 18.4275C100.885 18.9483 101.26 19.5629 101.469 20.2713V14.9275C101.469 14.2713 101.521 13.6775 101.625 13.1463C101.74 12.6046 101.969 12.1723 102.312 11.8494C102.656 11.5265 103.177 11.365 103.875 11.365C104.552 11.365 105.057 11.5265 105.391 11.8494C105.724 12.1723 105.943 12.6046 106.047 13.1463C106.161 13.6879 106.219 14.2817 106.219 14.9275ZM98.0938 23.5213V27.3025C98.0938 27.9067 98.1667 28.4379 98.3125 28.8963C98.4583 29.3546 98.8438 29.5838 99.4688 29.5838C100.24 29.5838 100.771 29.2088 101.062 28.4588C101.208 28.0838 101.307 27.6098 101.359 27.0369C101.422 26.4535 101.458 25.7608 101.469 24.9588C101.469 24.4692 101.411 23.9431 101.297 23.3806C101.182 22.8077 100.979 22.3181 100.688 21.9119C100.396 21.5056 99.9896 21.3025 99.4688 21.3025C98.8438 21.3025 98.4583 21.5265 98.3125 21.9744C98.1667 22.4223 98.0938 22.9379 98.0938 23.5213ZM109.156 27.365V23.49C109.156 22.5213 109.286 21.7088 109.547 21.0525C109.807 20.3858 110.141 19.8285 110.547 19.3806C110.964 18.9327 111.427 18.5838 111.938 18.3338C112.427 18.0838 112.922 17.8963 113.422 17.7713C113.911 17.6463 114.365 17.5681 114.781 17.5369C115.208 17.5056 115.542 17.49 115.781 17.49C116.021 17.49 116.349 17.5056 116.766 17.5369C117.182 17.5681 117.63 17.6463 118.109 17.7713C118.589 17.8963 119.068 18.0838 119.547 18.3338C120.036 18.5838 120.474 18.9327 120.859 19.3806C121.255 19.8285 121.573 20.3858 121.812 21.0525C122.062 21.7192 122.188 22.5317 122.188 23.49V27.365C122.188 28.3129 122.062 29.1254 121.812 29.8025C121.562 30.4692 121.245 31.0265 120.859 31.4744C120.474 31.9223 120.036 32.2713 119.547 32.5213C119.068 32.7713 118.589 32.9588 118.109 33.0838C117.63 33.2088 117.182 33.2869 116.766 33.3181C116.349 33.3494 116.021 33.365 115.781 33.365C115.552 33.365 115.224 33.3494 114.797 33.3181C114.38 33.2869 113.922 33.2088 113.422 33.0838C112.932 32.9588 112.438 32.7713 111.938 32.5213C111.427 32.2713 110.969 31.9223 110.562 31.4744C110.146 31.0265 109.807 30.4692 109.547 29.8025C109.286 29.1358 109.156 28.3233 109.156 27.365ZM113.969 22.8025V28.4588C113.99 28.7713 114.062 29.0369 114.188 29.2556C114.302 29.464 114.479 29.6515 114.719 29.8181C114.969 29.9744 115.323 30.0525 115.781 30.0525C116.219 30.0525 116.552 29.9744 116.781 29.8181C117.021 29.6515 117.198 29.464 117.312 29.2556C117.448 29.0056 117.521 28.74 117.531 28.4588V22.8025C117.521 22.5108 117.448 22.2244 117.312 21.9431C117.198 21.7348 117.021 21.5421 116.781 21.365C116.552 21.1775 116.219 21.0838 115.781 21.0838C115.323 21.0838 114.969 21.1775 114.719 21.365C114.479 21.5421 114.302 21.7348 114.188 21.9431C114.062 22.1827 113.99 22.4692 113.969 22.8025ZM134.781 17.615C135.177 17.615 135.573 17.7504 135.969 18.0213C136.552 18.4171 136.844 18.8963 136.844 19.4588C136.844 19.8025 136.76 20.1619 136.594 20.5369C136.427 20.9119 136.219 21.2713 135.969 21.615L133.188 25.4275L135.969 29.2088C136.208 29.5733 136.411 29.9379 136.578 30.3025C136.755 30.6671 136.844 31.0213 136.844 31.365C136.844 31.9483 136.552 32.4379 135.969 32.8338C135.542 33.1046 135.156 33.24 134.812 33.24C134.365 33.24 133.974 33.0629 133.641 32.7088C133.307 32.3546 132.979 31.9588 132.656 31.5213L130.781 28.8963L128.844 31.5213C128.573 31.9692 128.26 32.3702 127.906 32.7244C127.562 33.0681 127.177 33.24 126.75 33.24C126.406 33.24 126.021 33.1046 125.594 32.8338C125.01 32.4275 124.719 31.9379 124.719 31.365C124.719 31.0213 124.802 30.6671 124.969 30.3025C125.146 29.9379 125.354 29.5733 125.594 29.2088L128.219 25.4275L125.594 21.615C125.354 21.2504 125.146 20.891 124.969 20.5369C124.802 20.1827 124.719 19.8338 124.719 19.49C124.719 18.9171 125.01 18.4275 125.594 18.0213C126.021 17.7504 126.406 17.615 126.75 17.615C127.177 17.615 127.562 17.7869 127.906 18.1306C128.25 18.4744 128.562 18.865 128.844 19.3025L130.781 21.9275L132.656 19.3025C132.958 18.865 133.276 18.4744 133.609 18.1306C133.943 17.7869 134.333 17.615 134.781 17.615Z" fill="white"/>
</svg>
