<?xml version="1.0" standalone="no"?>
<!DOCTYPE svg PUBLIC "-//W3C//DTD SVG 20010904//EN"
 "http://www.w3.org/TR/2001/REC-SVG-20010904/DTD/svg10.dtd">
<svg version="1.0" xmlns="http://www.w3.org/2000/svg"
 width="2432.000000pt" height="2432.000000pt" viewBox="0 0 2432.000000 2432.000000"
 preserveAspectRatio="xMidYMid meet">
<metadata>
Created by potrace 1.14, written by Peter Selinger 2001-2017
</metadata>
<g transform="translate(0.000000,2432.000000) scale(0.100000,-0.100000)"
fill="#000000" stroke="none">
<path d="M1020 15840 c0 -3 -31 -4 -68 -3 -37 1 -95 -5 -127 -14 -33 -8 -71
-17 -85 -20 -14 -3 -27 -9 -30 -12 -3 -3 -25 -16 -50 -27 -82 -39 -160 -111
-248 -229 -19 -26 -69 -148 -77 -189 -11 -52 -16 -149 -15 -301 0 -177 1 -250
1 -260 1 -5 0 -37 0 -70 -1 -73 -1 -86 0 -150 0 -27 0 -57 0 -65 -3 -77 -1
-222 3 -228 3 -5 1 -14 -3 -20 -4 -7 -5 -33 -1 -57 4 -25 5 -47 3 -49 -8 -8
-8 -276 0 -276 5 0 6 -4 3 -9 -3 -4 -5 -44 -5 -87 0 -43 -1 -88 -1 -99 0 -11
1 -42 1 -70 0 -27 0 -57 0 -65 0 -8 0 -58 0 -110 0 -52 0 -102 0 -110 -2 -72
0 -123 5 -131 3 -5 0 -9 -6 -9 -6 0 -9 -4 -6 -8 5 -9 6 -30 7 -212 0 -47 0
-89 0 -95 1 -5 0 -37 0 -70 -1 -73 -1 -86 0 -150 0 -27 0 -57 0 -65 -3 -77 -1
-222 3 -228 3 -5 1 -14 -3 -20 -4 -7 -5 -33 -1 -57 4 -25 5 -47 3 -49 -8 -8
-8 -276 0 -276 5 0 6 -4 3 -9 -3 -4 -5 -44 -5 -87 0 -43 -1 -88 -1 -99 0 -11
1 -42 1 -70 0 -27 0 -57 0 -65 0 -8 0 -58 0 -110 0 -52 0 -102 0 -110 -2 -72
0 -123 5 -131 3 -5 0 -9 -6 -9 -6 0 -9 -4 -6 -8 5 -9 6 -30 7 -212 0 -47 0
-89 0 -95 1 -5 0 -37 0 -70 -1 -73 -1 -86 0 -150 0 -27 0 -57 0 -65 -3 -77 -1
-222 3 -228 3 -5 1 -14 -3 -20 -4 -7 -5 -33 -1 -57 4 -25 5 -47 3 -49 -8 -8
-8 -276 0 -276 5 0 6 -4 3 -9 -3 -4 -5 -44 -5 -87 0 -43 -1 -88 -1 -99 0 -11
1 -42 1 -70 0 -27 0 -57 0 -65 0 -8 0 -58 0 -110 0 -52 0 -102 0 -110 -2 -72
0 -123 5 -131 3 -5 1 -9 -5 -9 -6 0 -8 -6 -6 -12 2 -7 7 -47 10 -88 6 -84 6
-88 25 -150 7 -25 15 -51 16 -59 1 -8 7 -17 13 -20 5 -3 13 -19 16 -34 4 -16
14 -31 21 -34 8 -3 14 -11 14 -19 0 -7 35 -49 78 -92 105 -106 250 -178 376
-186 18 -1 37 -6 43 -9 7 -4 14 -3 18 2 5 10 36 8 54 -4 5 -3 12 -1 16 4 3 7
15 7 30 1 15 -6 27 -6 30 0 4 7 13 6 25 0 12 -6 21 -7 25 0 4 6 15 6 30 0 17
-6 25 -6 25 1 0 6 5 7 11 4 13 -9 165 -9 178 0 6 3 11 2 11 -4 0 -7 8 -7 25
-1 16 6 25 6 25 0 0 -6 9 -6 25 0 15 6 27 6 30 0 3 -6 15 -6 30 0 13 5 26 6
29 2 5 -9 81 -6 96 3 6 3 10 2 10 -4 0 -7 8 -7 25 -1 15 6 26 6 30 0 4 -7 13
-6 25 0 12 6 21 7 25 0 4 -6 15 -6 30 0 16 6 25 6 25 0 0 -6 9 -6 25 0 15 6
26 6 30 0 4 -6 14 -7 23 -2 19 9 54 8 70 -2 6 -3 13 -2 17 3 3 7 15 7 30 1 14
-5 27 -5 30 0 3 5 18 5 33 1 15 -4 39 -4 55 0 15 4 27 3 27 -2 0 -5 11 -4 25
1 14 5 25 6 25 2 0 -8 85 -6 106 2 8 3 14 1 14 -4 0 -6 9 -6 25 0 16 6 25 6
25 0 0 -6 9 -6 23 -1 13 5 30 5 39 0 10 -6 19 -6 23 0 3 7 15 7 30 1 15 -6 27
-6 30 1 4 5 11 7 16 3 17 -10 59 -12 65 -3 3 5 14 5 24 -1 12 -6 21 -7 25 0 4
6 15 6 30 0 15 -6 25 -6 25 0 0 5 12 5 30 0 18 -5 30 -5 30 0 0 6 10 6 25 0
16 -6 25 -6 25 0 0 6 9 6 25 0 14 -5 25 -6 25 -1 0 9 43 7 59 -3 5 -4 12 -2
16 3 3 7 15 7 30 1 15 -6 27 -6 30 0 4 7 13 6 25 0 12 -6 21 -7 25 0 4 6 15 6
30 0 17 -6 25 -6 25 1 0 6 5 7 11 4 5 -4 46 -7 89 -7 43 0 84 3 89 7 6 3 11 2
11 -4 0 -7 8 -7 25 -1 16 6 25 6 25 0 0 -6 9 -6 25 0 15 6 27 6 30 0 3 -6 15
-6 30 0 13 5 26 6 29 2 5 -9 81 -6 96 3 6 3 10 2 10 -4 0 -7 8 -7 25 -1 15 6
26 6 30 0 4 -7 13 -6 25 0 12 6 21 7 25 0 4 -6 15 -6 30 0 16 6 25 6 25 0 0
-6 9 -6 25 0 15 6 26 6 30 0 4 -6 14 -7 23 -2 19 9 54 8 70 -2 6 -3 13 -2 17
3 3 7 15 7 30 1 14 -5 27 -5 30 0 3 5 18 5 33 1 15 -4 39 -4 55 0 15 4 27 3
27 -2 0 -5 11 -4 25 1 14 5 25 6 25 2 0 -8 85 -6 106 2 8 3 14 1 14 -4 0 -6 9
-6 25 0 16 6 25 6 25 0 0 -6 9 -6 23 -1 13 5 30 5 39 0 10 -6 19 -6 23 0 3 7
15 7 30 1 15 -6 27 -6 30 1 4 5 11 7 16 3 17 -10 59 -12 65 -3 3 5 14 5 24 -1
12 -6 21 -7 25 0 4 6 15 6 30 0 15 -6 25 -6 25 0 0 5 12 5 30 0 18 -5 30 -5
30 0 0 6 10 6 25 0 16 -6 25 -6 25 0 0 6 9 6 25 0 14 -5 25 -6 25 -1 0 9 43 7
59 -3 5 -4 12 -2 16 3 3 7 15 7 30 1 15 -6 27 -6 30 0 4 7 13 6 25 0 12 -6 21
-7 25 0 4 6 15 6 30 0 17 -6 25 -6 25 1 0 6 5 7 11 4 13 -9 165 -9 178 0 6 3
11 2 11 -4 0 -7 8 -7 25 -1 16 6 25 6 25 0 0 -6 9 -6 25 0 15 6 27 6 30 0 3
-6 15 -6 30 0 13 5 26 6 29 2 5 -9 81 -6 96 3 6 3 10 2 10 -4 0 -7 8 -7 25 -1
15 6 26 6 30 0 4 -7 13 -6 25 0 12 6 21 7 25 0 4 -6 15 -6 30 0 16 6 25 6 25
0 0 -6 9 -6 25 0 15 6 26 6 30 0 4 -6 14 -7 23 -2 19 9 54 8 70 -2 6 -3 13 -2
17 3 3 7 15 7 30 1 14 -5 27 -5 30 0 3 5 18 5 33 1 15 -4 39 -4 55 0 15 4 27
3 27 -2 0 -5 11 -4 25 1 14 5 25 6 25 2 0 -8 85 -6 106 2 8 3 14 1 14 -4 0 -6
9 -6 25 0 16 6 25 6 25 0 0 -6 9 -6 23 -1 13 5 30 5 39 0 10 -6 19 -6 23 0 3
7 15 7 30 1 15 -6 27 -6 30 1 4 5 11 7 16 3 17 -10 59 -12 65 -3 3 5 14 5 24
-1 12 -6 21 -7 25 0 4 6 15 6 30 0 15 -6 25 -6 25 0 0 5 12 5 30 0 18 -5 30
-5 30 0 0 6 10 6 25 0 16 -6 25 -6 25 0 0 6 9 6 25 0 14 -5 25 -6 25 -1 0 9
43 7 59 -3 5 -4 12 -2 16 3 3 7 15 7 30 1 15 -6 27 -6 30 0 4 7 13 6 25 0 12
-6 21 -7 25 0 4 6 15 6 30 0 17 -6 25 -6 25 1 0 6 5 7 11 4 13 -9 165 -9 178
0 6 3 11 2 11 -4 0 -7 8 -7 25 -1 16 6 25 6 25 0 0 -6 9 -6 25 0 15 6 27 6 30
0 3 -6 15 -6 30 0 13 5 26 6 29 2 5 -9 81 -6 96 3 6 3 10 2 10 -4 0 -7 8 -7
25 -1 15 6 26 6 30 0 4 -7 13 -6 25 0 12 6 21 7 25 0 4 -6 15 -6 30 0 16 6 25
6 25 0 0 -6 9 -6 25 0 15 6 26 6 30 0 4 -6 14 -7 23 -2 19 9 54 8 70 -2 6 -3
13 -2 17 3 3 7 15 7 30 1 14 -5 27 -5 30 0 3 5 18 5 33 1 15 -4 39 -4 55 0 15
4 27 3 27 -2 0 -5 11 -4 25 1 14 5 25 6 25 2 0 -8 85 -6 106 2 8 3 14 1 14 -4
0 -6 9 -6 25 0 16 6 25 6 25 0 0 -6 9 -6 23 -1 13 5 30 5 39 0 10 -6 19 -6 23
0 3 7 15 7 30 1 15 -6 27 -6 30 1 4 5 11 7 16 3 17 -10 59 -12 65 -3 3 5 14 5
24 -1 12 -6 21 -7 25 0 4 6 15 6 30 0 15 -6 25 -6 25 0 0 5 12 5 30 0 18 -5
30 -5 30 0 0 6 10 6 25 0 16 -6 25 -6 25 0 0 6 9 6 25 0 14 -5 25 -6 25 -1 0
9 43 7 59 -3 5 -4 12 -2 16 3 3 7 15 7 30 1 15 -6 27 -6 30 0 4 7 13 6 25 0
12 -6 21 -7 25 0 4 6 15 6 30 0 17 -6 25 -6 25 1 0 6 5 7 11 4 13 -9 165 -9
178 0 6 3 11 2 11 -4 0 -7 8 -7 25 -1 16 6 25 6 25 0 0 -6 9 -6 25 0 15 6 27
6 30 0 3 -6 15 -6 30 0 13 5 26 6 29 2 5 -9 81 -6 96 3 6 3 10 2 10 -4 0 -7 8
-7 25 -1 15 6 26 6 30 0 4 -7 13 -6 25 0 12 6 21 7 25 0 4 -6 15 -6 30 0 16 6
25 6 25 0 0 -6 9 -6 25 0 15 6 26 6 30 0 4 -6 14 -7 23 -2 19 9 54 8 70 -2 6
-3 13 -2 17 3 3 7 15 7 30 1 14 -5 27 -5 30 0 3 5 18 5 33 1 15 -4 39 -4 55 0
15 4 27 3 27 -2 0 -5 11 -4 25 1 14 5 25 6 25 2 0 -8 85 -6 106 2 8 3 14 1 14
-4 0 -6 9 -6 25 0 16 6 25 6 25 0 0 -6 9 -6 23 -1 13 5 30 5 39 0 10 -6 19 -6
23 0 3 7 15 7 30 1 15 -6 27 -6 30 0 4 7 13 6 25 0 12 -6 21 -7 25 0 4 6 15 6
30 0 16 -6 25 -6 25 0 0 5 6 7 14 4 21 -8 106 -10 106 -2 0 4 11 3 25 -2 16
-6 25 -6 25 0 0 6 9 6 25 0 14 -5 25 -6 25 -2 0 8 52 8 66 -1 6 -3 16 -2 24 3
8 5 21 5 31 -1 11 -6 20 -5 24 1 3 5 15 6 29 0 12 -4 29 -4 36 0 8 5 19 5 25
0 6 -5 17 -5 25 0 8 5 21 5 31 -1 11 -6 20 -5 24 1 4 7 12 7 25 0 12 -6 21 -7
25 0 4 6 15 6 30 0 16 -6 25 -6 25 0 0 5 6 7 14 4 21 -8 106 -10 106 -2 0 4
11 3 25 -2 16 -6 25 -6 25 0 0 6 9 6 25 0 14 -5 25 -6 25 -2 0 9 64 7 79 -2 5
-4 12 -2 16 3 4 7 15 7 30 1 16 -6 25 -6 25 0 0 6 9 6 25 0 15 -6 25 -6 25 0
0 5 12 5 28 1 15 -4 39 -4 55 0 15 4 27 4 27 -1 0 -4 15 -5 33 0 18 4 43 3 55
-1 13 -5 22 -4 22 1 0 5 6 7 14 4 21 -8 106 -10 106 -2 0 4 11 3 25 -2 16 -6
25 -6 25 0 0 6 9 6 25 0 14 -5 25 -6 25 -2 0 8 52 8 66 -1 6 -3 16 -2 24 3 8
5 21 5 31 -1 11 -6 20 -5 24 1 3 5 15 6 29 0 12 -4 29 -4 36 0 8 5 19 5 25 0
6 -5 17 -5 25 0 8 5 21 5 31 -1 11 -6 20 -5 24 1 4 7 12 7 25 0 12 -6 21 -7
25 0 4 6 15 6 30 0 16 -6 25 -6 25 0 0 5 6 7 14 4 21 -8 106 -10 106 -2 0 4
11 3 25 -2 16 -6 25 -6 25 0 0 6 9 6 25 0 14 -5 25 -6 25 -2 0 9 64 7 79 -2 5
-4 12 -2 16 3 4 7 15 7 30 1 16 -6 25 -6 25 0 0 6 9 6 25 0 15 -6 25 -6 25 0
0 5 12 5 28 1 15 -4 39 -4 55 0 15 4 27 4 27 -1 0 -4 15 -5 33 0 18 4 43 3 55
-1 13 -5 22 -4 22 1 0 5 6 7 14 4 21 -8 106 -10 106 -2 0 4 11 3 25 -2 16 -6
25 -6 25 0 0 6 9 6 25 0 14 -5 25 -6 25 -2 0 9 64 7 79 -2 5 -4 12 -2 16 3 4
7 15 7 30 1 16 -6 25 -6 25 0 0 6 9 6 25 0 15 -6 25 -6 25 0 0 5 12 5 28 1 15
-4 39 -4 55 0 15 4 27 3 27 -2 0 -4 6 -6 13 -3 25 9 87 10 87 1 0 -6 5 -6 12
0 7 5 27 10 43 12 88 9 213 66 298 136 154 127 231 291 240 508 1 20 -1 37 -5
37 -4 0 -3 14 2 30 5 17 5 30 0 30 -5 0 -5 12 -1 28 4 15 4 39 0 55 -4 15 -3
27 1 27 5 0 5 14 0 30 -5 17 -5 30 0 30 5 0 5 13 0 30 -5 17 -5 30 0 30 5 0 5
13 0 30 -5 17 -5 30 0 30 5 0 5 13 0 30 -5 17 -5 30 0 30 5 0 5 13 0 30 -5 17
-5 30 0 30 5 0 5 13 0 30 -5 17 -5 30 0 30 5 0 5 13 0 30 -5 17 -5 30 0 30 5
0 5 13 0 30 -5 17 -5 30 0 30 5 0 5 13 0 30 -5 17 -5 30 0 30 5 0 5 13 0 30
-5 17 -5 30 0 30 5 0 5 13 0 30 -5 17 -5 30 0 30 5 0 5 12 1 28 -7 28 -6 74 3
98 3 7 1 16 -4 19 -6 3 -6 15 0 30 6 15 6 27 0 30 -5 3 -6 15 0 29 4 12 4 29
0 36 -5 8 -5 21 0 30 5 9 5 22 0 30 -5 8 -5 21 0 30 5 9 5 22 0 30 -4 7 -5 23
0 35 5 12 4 28 0 35 -5 8 -5 21 0 30 5 9 5 22 0 30 -4 7 -5 23 0 35 5 12 4 28
0 35 -5 8 -5 21 0 30 5 9 5 22 0 30 -5 8 -5 21 0 30 5 9 5 22 0 29 -4 8 -4 27
0 42 5 16 5 31 0 34 -5 3 -5 16 0 30 6 15 6 27 0 30 -5 3 -6 15 0 29 4 12 4
29 0 36 -5 8 -5 21 0 30 5 9 5 22 0 30 -5 8 -5 21 0 30 5 9 5 22 0 30 -4 7 -5
23 0 35 5 12 4 28 0 35 -5 8 -5 21 0 30 5 9 5 22 0 30 -4 7 -5 23 0 35 5 12 4
28 0 35 -5 8 -5 21 0 30 5 9 5 22 0 30 -5 8 -6 18 -3 23 9 14 9 69 1 94 -4 12
-3 25 2 28 6 3 6 15 0 29 -5 13 -6 27 -3 30 8 8 9 76 1 76 -4 0 -3 14 2 30 5
17 5 30 0 30 -5 0 -5 13 0 30 5 17 5 30 0 30 -5 0 -5 13 0 30 5 17 5 30 0 30
-5 0 -5 13 0 30 5 17 5 30 0 30 -5 0 -5 13 0 30 5 17 5 30 0 30 -5 0 -5 13 0
30 5 17 5 30 0 30 -5 0 -5 13 0 30 5 17 5 30 0 30 -5 0 -5 13 0 30 5 17 5 30
0 30 -5 0 -5 13 0 30 5 17 5 30 0 30 -5 0 -5 13 0 30 5 17 5 30 0 30 -5 0 -5
13 0 30 5 17 5 30 0 30 -5 0 -5 13 0 30 5 17 5 30 0 30 -5 0 -5 13 0 30 5 17
5 30 0 30 -5 0 -5 13 0 30 5 17 5 30 0 30 -5 0 -5 13 0 30 5 17 5 30 0 30 -5
0 -5 13 0 30 5 17 5 30 0 30 -5 0 -5 13 0 30 5 17 5 30 0 30 -5 0 -5 13 0 30
5 17 5 30 0 30 -5 0 -5 13 0 30 5 17 5 30 0 30 -5 0 -5 13 0 30 5 17 5 32 0
35 -5 3 -6 15 0 29 4 12 4 29 0 36 -5 8 -5 21 0 30 5 9 5 22 0 30 -5 8 -5 21
0 30 5 9 5 22 0 30 -5 8 -5 21 0 30 5 9 5 22 0 30 -5 8 -5 21 0 30 5 9 5 22 0
30 -5 8 -5 21 0 30 5 9 5 22 0 30 -5 8 -5 21 0 30 5 9 5 22 0 30 -5 8 -5 21 0
30 5 9 5 22 0 30 -5 8 -5 21 0 30 5 9 5 22 0 30 -5 8 -5 21 0 30 5 9 5 22 0
30 -5 8 -5 21 0 30 5 9 5 22 0 30 -5 8 -5 21 0 30 5 9 5 22 0 30 -5 8 -5 21 0
30 5 9 5 22 0 30 -5 8 -5 21 0 30 5 9 5 22 0 30 -5 8 -5 21 0 30 5 9 5 22 0
30 -5 8 -5 21 0 30 5 9 5 22 0 30 -5 8 -5 21 0 30 5 9 5 22 0 30 -5 8 -5 21 0
30 5 9 5 22 1 29 -5 7 -5 29 -1 50 4 21 3 47 -1 59 -5 12 -4 24 1 27 6 3 6 15
0 29 -5 13 -6 27 -3 30 8 8 9 76 1 76 -4 0 -3 14 2 30 5 17 5 30 0 30 -5 0 -5
13 0 30 5 17 5 30 0 30 -5 0 -5 13 0 30 5 17 5 30 0 30 -5 0 -5 13 0 30 5 17
5 30 0 30 -5 0 -5 13 0 30 5 17 5 30 0 30 -5 0 -5 13 0 30 5 19 5 30 -1 30 -6
0 -7 5 -4 11 9 14 9 154 0 168 -3 6 -2 11 4 11 6 0 6 11 1 30 -5 17 -5 32 0
35 5 3 6 15 0 29 -4 12 -4 29 0 36 5 8 5 21 0 30 -4 8 -4 22 0 31 5 8 5 21 0
29 -4 7 -4 24 0 36 6 14 5 26 0 29 -6 3 -6 15 0 29 5 13 6 26 3 29 -3 3 -7 32
-9 64 -5 81 -10 113 -25 148 -7 17 -13 32 -14 35 -28 106 -165 267 -273 321
-26 13 -50 28 -53 32 -3 5 -12 10 -20 11 -8 1 -34 9 -59 16 -25 7 -52 15 -60
17 -31 8 -270 17 -308 12 -4 -1 -11 -1 -17 1 -5 1 -57 1 -115 0 -58 0 -112 -1
-120 0 -8 0 -35 0 -60 -1 -25 -1 -52 -1 -60 0 -8 0 -89 0 -180 0 -91 0 -171 0
-177 1 -34 1 -46 1 -88 1 -25 0 -51 0 -57 0 -7 0 -38 0 -68 0 -30 0 -62 0 -70
0 -8 1 -51 0 -95 0 -44 -1 -106 0 -138 1 -31 2 -57 -1 -57 -5 0 -5 -5 -5 -10
-2 -6 4 -43 6 -83 5 -39 -1 -83 -1 -97 0 -96 5 -130 4 -130 -3 0 -5 -5 -5 -10
-2 -6 3 -52 6 -103 5 -50 0 -101 0 -112 0 -11 0 -40 0 -65 -1 -25 -1 -49 -1
-55 -1 -82 6 -165 5 -165 -1 0 -5 -4 -5 -10 -2 -8 5 -42 6 -155 5 -48 -1 -181
-1 -195 0 -8 0 -35 0 -60 -1 -25 -1 -51 -1 -57 0 -7 0 -19 1 -25 2 -7 1 -38 0
-68 0 -30 -1 -98 -1 -150 -1 -52 1 -99 1 -105 0 -14 -2 -137 0 -208 3 -31 1
-57 -2 -57 -6 0 -5 -5 -5 -10 -2 -6 4 -43 6 -83 5 -39 -1 -83 -1 -97 0 -90 4
-130 4 -130 -1 0 -3 -19 -3 -42 1 -24 3 -64 3 -89 0 -26 -4 -54 -3 -64 0 -10
3 -39 3 -66 0 -27 -4 -51 -4 -54 -2 -2 3 -53 4 -112 3 -60 -1 -115 -2 -123 -1
-8 0 -35 0 -60 -1 -25 -1 -52 -1 -60 0 -8 0 -89 0 -180 0 -91 0 -171 0 -177 1
-34 1 -46 1 -88 1 -25 0 -51 0 -57 0 -7 0 -38 0 -68 0 -30 0 -62 0 -70 0 -8 1
-51 0 -95 0 -44 -1 -106 0 -138 1 -31 2 -57 -1 -57 -5 0 -5 -5 -5 -10 -2 -6 4
-43 6 -83 5 -39 -1 -83 -1 -97 0 -96 5 -130 4 -130 -3 0 -5 -5 -5 -10 -2 -6 4
-43 6 -83 5 -39 -1 -83 -1 -97 0 -96 5 -130 4 -130 -3 0 -5 -5 -5 -10 -2 -6 4
-43 6 -83 5 -39 -1 -83 -1 -97 0 -90 4 -130 4 -130 -1 0 -3 -19 -3 -42 1 -24
3 -64 3 -89 0 -26 -4 -54 -3 -64 0 -10 3 -39 3 -66 0 -27 -4 -51 -4 -54 -2 -2
3 -53 4 -112 3 -60 -1 -115 -2 -123 -1 -8 0 -35 0 -60 -1 -25 -1 -52 -1 -60 0
-8 0 -89 0 -180 0 -91 0 -171 0 -177 1 -34 1 -46 1 -88 1 -25 0 -51 0 -57 0
-7 0 -38 0 -68 0 -30 0 -62 0 -70 0 -8 1 -51 0 -95 0 -44 -1 -106 0 -138 1
-31 2 -57 -1 -57 -5 0 -5 -5 -5 -10 -2 -6 4 -43 6 -83 5 -39 -1 -83 -1 -97 0
-96 5 -130 4 -130 -3 0 -5 -5 -5 -10 -2 -6 4 -43 6 -83 5 -39 -1 -83 -1 -97 0
-96 5 -130 4 -130 -3 0 -5 -5 -5 -10 -2 -6 4 -43 6 -83 5 -39 -1 -83 -1 -97 0
-90 4 -130 4 -130 -1 0 -3 -19 -3 -42 1 -24 3 -64 3 -89 0 -26 -4 -54 -3 -64
0 -10 3 -39 3 -66 0 -27 -4 -51 -4 -54 -2 -2 3 -53 4 -112 3 -60 -1 -115 -2
-123 -1 -8 0 -35 0 -60 -1 -25 -1 -52 -1 -60 0 -8 0 -89 0 -180 0 -91 0 -171
0 -177 1 -34 1 -46 1 -88 1 -25 0 -51 0 -57 0 -7 0 -38 0 -68 0 -30 0 -62 0
-70 0 -8 1 -51 0 -95 0 -44 -1 -106 0 -138 1 -31 2 -57 -1 -57 -5 0 -5 -5 -5
-10 -2 -6 4 -43 6 -83 5 -39 -1 -83 -1 -97 0 -96 5 -130 4 -130 -3 0 -5 -5 -5
-10 -2 -6 4 -43 6 -83 5 -39 -1 -83 -1 -97 0 -96 5 -130 4 -130 -3 0 -5 -5 -5
-10 -2 -6 4 -43 6 -83 5 -39 -1 -83 -1 -97 0 -90 4 -130 4 -130 -1 0 -3 -19
-3 -42 1 -24 3 -64 3 -89 0 -26 -4 -54 -3 -64 0 -10 3 -39 3 -66 0 -27 -4 -51
-4 -54 -2 -2 3 -53 4 -112 3 -60 -1 -115 -2 -123 -1 -8 0 -35 0 -60 -1 -25 -1
-51 -1 -57 0 -7 0 -19 1 -25 2 -7 1 -38 0 -68 0 -30 -1 -101 0 -158 1 -56 2
-102 1 -102 -2z"/>
<path d="M16486 14364 c-147 -45 -223 -165 -242 -383 -4 -42 -8 -286 -8 -544
l-1 -467 -34 72 c-19 40 -38 75 -43 76 -4 2 -8 10 -8 18 0 7 -33 47 -73 87
-110 112 -211 151 -387 150 -213 -2 -394 -71 -526 -202 -52 -51 -124 -150
-124 -170 0 -6 -5 -11 -10 -11 -6 0 -9 -3 -8 -7 1 -5 -8 -30 -20 -56 -12 -27
-22 -54 -22 -61 0 -7 -3 -16 -7 -20 -5 -4 -8 -11 -8 -14 -1 -4 -5 -25 -10 -47
-13 -63 -14 -66 -21 -135 -14 -120 -8 -1072 6 -1110 1 -3 3 -9 5 -15 1 -5 3
-12 4 -15 2 -3 4 -16 6 -30 11 -77 68 -212 125 -295 37 -53 107 -127 160 -167
35 -26 150 -88 173 -92 7 -2 31 -8 55 -15 46 -13 73 -17 162 -27 69 -7 63 -8
139 0 166 18 280 89 383 241 33 48 73 136 69 150 -1 6 1 6 5 2 5 -4 9 -18 11
-30 11 -105 31 -187 44 -187 5 0 9 -6 9 -13 0 -21 60 -87 104 -114 46 -30 87
-42 166 -49 70 -6 67 -6 120 -1 196 22 277 120 306 372 9 75 10 2609 2 2690
-16 156 -24 189 -64 272 -30 61 -78 107 -142 135 -62 27 -224 34 -296 12z
m-465 -1597 c65 -32 129 -118 158 -212 7 -22 15 -47 18 -55 9 -23 12 -41 29
-165 12 -83 5 -387 -10 -475 -3 -14 -7 -46 -10 -72 -15 -117 -66 -224 -130
-273 -74 -56 -204 -65 -282 -20 -86 50 -100 150 -98 665 1 212 3 387 4 390 2
3 4 14 5 25 2 22 14 72 22 95 3 8 7 21 9 28 4 21 48 61 85 76 45 19 153 15
200 -7z"/>
<path d="M18548 13404 c-3 -3 -46 -6 -95 -8 -49 -1 -94 -5 -101 -10 -7 -4 -12
-3 -12 3 0 7 -8 7 -24 1 -14 -5 -42 -11 -63 -14 -156 -21 -355 -102 -465 -189
-68 -52 -158 -147 -158 -164 0 -3 -7 -14 -15 -23 -32 -35 -109 -213 -122 -280
-2 -14 -8 -41 -12 -60 -12 -57 -14 -134 -14 -535 -1 -385 2 -492 13 -510 4 -5
7 -23 8 -40 4 -65 101 -305 123 -305 5 0 9 -5 9 -11 0 -15 56 -84 112 -139
124 -122 356 -219 588 -248 117 -14 446 -4 497 15 8 3 22 7 31 8 46 4 127 32
227 75 17 8 33 13 38 12 4 -1 7 2 7 8 0 5 7 10 15 10 8 0 15 5 15 11 0 5 4 8
9 5 5 -3 14 1 21 9 7 8 16 15 21 15 5 0 17 8 27 18 10 9 34 31 53 48 35 31 97
104 113 133 5 9 12 18 15 21 6 5 75 148 77 159 0 3 3 13 7 21 21 54 34 109 45
190 9 67 9 975 0 1010 -4 14 -9 41 -12 62 -6 36 -29 114 -46 153 -53 123 -112
217 -176 281 -66 66 -249 177 -311 189 -10 2 -19 4 -20 5 -2 2 -6 3 -10 5 -5
1 -15 4 -23 8 -56 22 -197 46 -302 52 -37 2 -71 6 -76 9 -5 3 -12 3 -14 0z
m52 -587 c74 -9 158 -89 186 -175 17 -52 18 -100 19 -537 1 -534 -1 -549 -64
-625 -30 -37 -111 -90 -111 -74 0 4 -6 2 -12 -3 -15 -12 -174 -14 -197 -4
-107 50 -142 86 -170 171 -15 45 -16 107 -15 533 1 265 2 482 3 482 2 0 4 14
7 32 8 64 69 144 136 179 52 27 120 34 218 21z"/>
<path d="M20200 13364 c-17 -7 -30 -11 -30 -8 0 11 -117 -70 -143 -100 -62
-68 -85 -165 -61 -257 14 -55 61 -153 112 -231 44 -69 175 -261 182 -268 11
-11 50 -70 50 -75 0 -3 6 -13 13 -21 6 -8 17 -20 22 -27 38 -47 173 -256 167
-259 -5 -1 -55 -70 -112 -153 -57 -82 -108 -153 -114 -157 -6 -4 -8 -8 -4 -8
6 0 -23 -44 -70 -105 -4 -5 -23 -34 -42 -62 -18 -29 -38 -53 -43 -53 -6 0 -8
-3 -4 -6 3 -4 1 -12 -6 -20 -48 -53 -131 -214 -150 -289 -14 -55 -14 -126 1
-165 5 -14 10 -28 11 -32 1 -10 38 -53 74 -88 32 -33 141 -92 151 -83 3 3 6 2
6 -3 0 -11 118 -13 135 -3 6 3 22 9 38 13 15 3 27 11 27 16 0 6 6 10 13 10 25
0 169 176 258 318 12 17 25 32 30 32 5 0 9 4 9 10 0 8 39 64 83 120 7 8 37 49
68 91 l55 77 27 -42 c14 -22 33 -50 42 -61 9 -11 38 -51 65 -90 28 -38 57 -79
66 -90 8 -11 23 -32 32 -47 9 -16 20 -28 24 -28 4 0 8 -7 8 -15 0 -8 5 -15 10
-15 6 0 10 -7 10 -15 0 -8 9 -20 20 -27 11 -7 20 -17 20 -21 0 -5 6 -14 13
-21 6 -7 23 -28 37 -46 47 -63 130 -141 168 -157 114 -48 266 0 369 117 13 14
23 31 23 38 0 6 4 12 8 12 5 0 9 6 10 13 1 6 5 31 10 54 25 118 -41 265 -240
534 -56 76 -160 217 -172 234 -8 11 -49 66 -90 123 l-76 103 31 42 c17 23 69
94 115 157 46 63 87 120 92 125 4 6 30 42 57 80 27 39 54 75 60 81 5 6 16 20
23 30 7 11 35 51 63 89 49 69 117 195 124 231 2 11 4 19 5 19 6 0 12 51 12
108 0 51 -4 72 -17 87 -10 11 -15 20 -12 20 8 0 -19 35 -53 68 -77 75 -163
111 -256 108 -95 -4 -149 -38 -248 -160 -17 -21 -37 -44 -43 -51 -7 -8 -13
-18 -13 -23 0 -6 -7 -12 -15 -16 -8 -3 -15 -11 -15 -17 0 -7 -16 -31 -35 -55
-19 -23 -35 -47 -35 -53 0 -5 -6 -14 -14 -18 -7 -4 -19 -18 -25 -31 -7 -13
-19 -31 -27 -40 -7 -9 -45 -61 -83 -115 -38 -54 -73 -97 -78 -96 -4 2 -30 33
-56 69 -67 90 -77 103 -151 203 -36 48 -66 92 -66 97 0 4 -3 10 -7 12 -5 2
-28 30 -52 63 -25 33 -48 62 -53 63 -4 2 -8 9 -8 14 0 6 -26 36 -58 67 -87 84
-186 111 -272 75z"/>
</g>
</svg>
